<svg id="Layer_1" data-name="Layer 1" xmlns="http://www.w3.org/2000/svg" viewBox="0 0 2472.56 813.85"><defs><style>.cls-1{fill:#ff9f00;}.cls-2{fill:#191919;}</style></defs><path class="cls-1" d="M573.68,259.87h0a162.91,162.91,0,0,0-97.41-149.16L290.55,406.41H98.68L291,97.19H97.43V119h0V715.53l193.88-308.8H480.46l-190,309.83H410.78a162.9,162.9,0,0,0,162.9-162.9h0c0-63.27-39.38-120.06-92.11-147.06A162.9,162.9,0,0,0,573.68,259.87Z"/><path class="cls-2" d="M1178,463.38A114.24,114.24,0,0,0,1164,431.89a103.74,103.74,0,0,0-49.57-40.61,104.44,104.44,0,0,0,44.48-40.94c11.09-18.64,16.67-40.88,16.67-66.11,0-39.24-12.06-71.28-35.82-95.28s-59.63-36.12-106.66-36.12l-199.13.2V635.24h205.8c45.75,0,81.45-12,106-35.7s37-57.34,37-99.84A135.3,135.3,0,0,0,1178,463.38ZM907.31,228.66h126.34c22.25,0,39.22,5.58,50.37,16.46s16.66,26.32,16.66,45.91c0,41-22.54,61.69-67,61.69H907.31Zm131.13,330.75H907.31V429.3h131.8c21.94,0,39,5.78,50.91,17.07s17.87,27.41,17.87,47.95C1107.89,538.12,1085.17,559.41,1038.44,559.41Z"/><path class="cls-2" d="M2162.54,532.8c0,34.91-10.4,61-31,77.46-20,16-50.89,24.26-91.77,24.39H1908.66l21.11-62.19h106.92c20,0,35-3,45-8.79,8.92-5.32,13.22-13.86,13.22-26,0-8.8-2.12-15.34-6.36-19.51-4.62-4.69-10.78-8.22-18.22-10.53l-4.11-1.28a127.85,127.85,0,0,0-25-6l-14.5-2.44c-23.23-3.72-42-8.47-55.58-14.18-14.44-6-25.67-15.08-33.56-26.83s-11.75-27.66-11.75-47.61a133.94,133.94,0,0,1,1.74-22.4c2.18-13.09,6.41-24.64,12.7-34.27,18-28,53.4-42.16,105.38-42.16h108.13v61.8H2048.82V372l-3.27.07c-52.18.83-52.18,23.68-52.18,31.19s2,13.15,6,17c4.5,4.37,10.46,7.58,17.65,9.69,8.09,2.38,37,9.05,45.31,10.66,23.94,4.49,43.06,9.75,56.67,15.66,14.5,6.29,25.54,15.66,32.79,27.91S2162.54,512.65,2162.54,532.8Z"/><path class="cls-2" d="M2039.77,634.65H1908.66l21.11-62.19h106.92c20,0,35-3,45-8.79,8.92-5.32,13.22-13.86,13.22-26,0-8.8-2.12-15.34-6.36-19.51-4.62-4.69-10.78-8.22-18.22-10.53l-4.11-1.28a127.85,127.85,0,0,0-25-6l-14.5-2.44c-23.23-3.72-42-8.47-55.58-14.18-14.44-6-25.67-15.08-33.56-26.83s-11.75-27.66-11.75-47.61a133.94,133.94,0,0,1,1.74-22.4c2.18-13.09,6.41-24.64,12.7-34.27,18-28,53.4-42.16,105.38-42.16h108.13v61.8H2048.82V372l-3.27.07c-52.18.83-52.18,23.68-52.18,31.19s2,13.15,6,17c4.5,4.37,10.46,7.58,17.65,9.69,8.09,2.38,37,9.05,45.31,10.66,23.94,4.49,43.06,9.75,56.67,15.66,14.5,6.29,25.54,15.66,32.79,27.91s10.72,28.43,10.72,48.58c0,34.91-10.4,61-31,77.46C2111.52,626.31,2080.65,634.52,2039.77,634.65Z"/><path class="cls-2" d="M2213.68,226.48l70.66-.19.26,83.55,86.31-.13v61.42l-86.12.19.45,198.18,89.84-.26-22.84,62-96.07.26a41.51,41.51,0,0,1-41.46-41.39Z"/><path class="cls-2" d="M2375.08,569.24l-22.84,62-96.07.26a41.51,41.51,0,0,1-41.46-41.39l-1-363.62,70.66-.19.26,83.55,86.31-.13v61.42l-86.12.19.45,198.18Z"/><path class="cls-2" d="M1380.63,306c-52.14,0-90.73,13.92-114.69,41.37-23.76,27.2-35.8,70.47-35.8,128.59,0,56.88,11.81,99.4,35.11,126.38,23.54,27.27,62.36,41.09,115.38,41.09S1472.49,629.5,1496,602c23.29-27.2,35.1-69.61,35.1-126,0-57.68-11.92-100.82-35.43-128.23C1471.92,320.05,1433.2,306,1380.63,306Zm-67.8,103.79c4.52-14.68,12-25.15,22.37-31.12,10.78-6.22,26.07-9.38,45.43-9.38s34.51,3.15,45.06,9.36c10.14,6,17.57,16.35,22.1,30.86,4.82,15.49,7.27,37.85,7.27,66.45,0,27.4-2.34,48.94-7,64-4.38,14.3-11.52,24.3-21.83,30.55h0c-10.53,6.4-25.88,9.64-45.64,9.64s-35.26-3.25-46-9.67c-10.5-6.24-17.73-16.32-22.11-30.81-4.62-15.24-7-36.68-7-63.71C1305.55,447.74,1308,425.48,1312.83,409.8Z"/><path class="cls-2" d="M1843.59,347.74C1819.81,320.05,1781.1,306,1728.53,306c-52.15,0-90.74,13.92-114.7,41.37-23.76,27.2-35.8,70.47-35.8,128.59,0,56.88,11.81,99.4,35.11,126.38,23.54,27.27,62.36,41.09,115.39,41.09s91.85-13.94,115.39-41.42c23.29-27.2,35.1-69.61,35.1-126C1879,418.29,1867.1,375.15,1843.59,347.74ZM1802.94,476c0,27.42-2.33,48.95-7,64-4.38,14.3-11.52,24.3-21.83,30.55h0c-10.52,6.4-25.88,9.64-45.63,9.64s-35.27-3.25-46-9.67c-10.5-6.24-17.73-16.32-22.11-30.81-4.62-15.25-7-36.68-7-63.71,0-28.23,2.45-50.49,7.28-66.17,4.52-14.68,12-25.15,22.37-31.12,10.79-6.22,26.07-9.38,45.44-9.38s34.5,3.15,45,9.36c10.14,6,17.57,16.35,22.1,30.86C1800.5,425,1802.94,447.36,1802.94,476Z"/></svg>