<svg xmlns="http://www.w3.org/2000/svg" id="Layer_1" viewBox="0 0 1500 1500">
    <defs>
        <style>
            .cls-1{
                fill:#ff9f00;
            }
        </style>
    </defs>
    <path
        class="cls-1"
        d="M1099.52,143.38H399.52L49.52,749.61l94.89,164.36L494.27,307.81h353.59c150.74,0,273.32,122.59,273.32,273.33,0,64.13-22.1,123.11-59.2,169.77,35.76,46.14,56.96,104.07,56.96,166.79,0,150.66-122.59,273.25-273.33,273.25h-463.63l121.09-209.87h342.53c35.02,0,63.46-28.44,63.46-63.39s-26.8-61.82-60.47-63.31c-.97-.15-272.36,0-272.36,0l121.25-210.01s151.93.15,152.6.07c14.26-.45,27.25-5.6,37.56-14.04,14.48-11.57,23.67-29.34,23.67-49.27,0-35.01-28.45-63.46-63.46-63.46h-225.63l-353.36,611.93,130.65,226.24h700l350-606.23-350-606.23Z"
    />
</svg>
