<svg width="118" height="23" viewBox="0 0 118 23" fill="none" xmlns="http://www.w3.org/2000/svg">
<path d="M68.4206 17.8373H60.9597V13.5491H68.4244C69.6516 13.5699 70.6428 14.5104 70.6428 15.6852C70.6428 16.8601 69.6478 17.8373 68.4206 17.8373ZM60.9597 5.2656H68.2923C69.2953 5.27769 70.1453 6.07076 70.1453 7.10982C70.1453 8.14888 69.2547 8.96998 68.2479 8.9579H60.9597V5.2656ZM72.6366 11.2622C74.0162 10.2681 74.5378 8.62105 74.5378 6.81018C74.5378 3.40109 71.7341 0.669568 68.296 0.669568H55.8451V22.4333H68.7855V22.4415C72.4199 22.4415 75.444 19.5708 75.444 16.0549C75.444 13.7632 74.0964 12.0669 72.6366 11.2617V11.2622ZM91.8384 0.61979V12.8556C91.8384 16.5972 89.7045 18.1659 87.0812 18.1659C84.4578 18.1659 82.3357 16.601 82.3357 12.8595V0.620273H77.0365V12.8923C77.0365 20.7215 81.5295 23.0002 87.0812 23.0002C92.6328 23.0002 97.1348 20.7206 97.1348 12.8923V0.620273L91.8384 0.61979ZM110.431 9.10143C106.143 8.1484 104.695 7.72552 104.695 6.33318C104.695 5.10515 106.247 4.4851 108.698 4.4851C111.011 4.4851 113.808 5.49517 115.447 6.50136L117.122 2.07593C114.635 1.0127 111.642 -0.00219727 107.687 -0.00219727C102.5 -0.00219727 99.2616 3.10484 99.2616 6.90007C99.2616 10.6953 101.929 12.3709 107.216 13.5167C111.315 14.404 112.426 14.9376 112.426 16.2439C112.426 17.5502 110.782 18.0321 108.56 18.0321C105.683 18.0321 102.916 17.0505 100.308 15.9056L98.732 20.2223C101.847 21.7011 105.086 22.8876 108.945 22.8876C115.375 22.8876 117.998 19.7419 117.998 16.0733C117.998 12.8121 115.792 10.298 110.429 9.10337L110.431 9.10143ZM10.738 0.669085L0 22.429L6.37766 22.4333L7.98246 18.9339H15.307L13.0272 14.1653H10.1367L12.8601 8.21364L19.7197 22.4333H26.1134L14.9582 0.669085H10.738ZM53.884 7.90627C53.884 3.94334 51.228 0.726596 45.7689 0.726596H34.7416V22.4908L39.8519 22.4865V5.32263H46.1219C47.975 5.32263 48.7449 6.49701 48.7449 7.89371C48.7449 9.2904 47.9349 10.4155 46.0814 10.4155H41.6969L48.3328 22.4865H53.5796C53.5796 22.4865 49.0389 14.5964 49.063 14.5925C52.3401 13.5491 53.8845 11.007 53.8845 7.90579L53.884 7.90627ZM27.2084 22.4411H32.4948V0.681167H27.2084V22.4411Z" fill="#7E929C"/>
<path d="M68.4206 17.8373H60.9597V13.5491H68.4244C69.6516 13.5699 70.6428 14.5104 70.6428 15.6852C70.6428 16.8601 69.6478 17.8373 68.4206 17.8373ZM60.9597 5.2656H68.2923C69.2953 5.27769 70.1453 6.07076 70.1453 7.10982C70.1453 8.14888 69.2547 8.96998 68.2479 8.9579H60.9597V5.2656ZM72.6366 11.2622C74.0162 10.2681 74.5378 8.62105 74.5378 6.81018C74.5378 3.40109 71.7341 0.669568 68.296 0.669568H55.8451V22.4333H68.7855V22.4415C72.4199 22.4415 75.444 19.5708 75.444 16.0549C75.444 13.7632 74.0964 12.0669 72.6366 11.2617V11.2622ZM91.8384 0.61979V12.8556C91.8384 16.5972 89.7045 18.1659 87.0812 18.1659C84.4578 18.1659 82.3357 16.601 82.3357 12.8595V0.620273H77.0365V12.8923C77.0365 20.7215 81.5295 23.0002 87.0812 23.0002C92.6328 23.0002 97.1348 20.7206 97.1348 12.8923V0.620273L91.8384 0.61979ZM110.431 9.10143C106.143 8.1484 104.695 7.72552 104.695 6.33318C104.695 5.10515 106.247 4.4851 108.698 4.4851C111.011 4.4851 113.808 5.49517 115.447 6.50136L117.122 2.07593C114.635 1.0127 111.642 -0.00219727 107.687 -0.00219727C102.5 -0.00219727 99.2616 3.10484 99.2616 6.90007C99.2616 10.6953 101.929 12.3709 107.216 13.5167C111.315 14.404 112.426 14.9376 112.426 16.2439C112.426 17.5502 110.782 18.0321 108.56 18.0321C105.683 18.0321 102.916 17.0505 100.308 15.9056L98.732 20.2223C101.847 21.7011 105.086 22.8876 108.945 22.8876C115.375 22.8876 117.998 19.7419 117.998 16.0733C117.998 12.8121 115.792 10.298 110.429 9.10337L110.431 9.10143ZM10.738 0.669085L0 22.429L6.37766 22.4333L7.98246 18.9339H15.307L13.0272 14.1653H10.1367L12.8601 8.21364L19.7197 22.4333H26.1134L14.9582 0.669085H10.738ZM53.884 7.90627C53.884 3.94334 51.228 0.726596 45.7689 0.726596H34.7416V22.4908L39.8519 22.4865V5.32263H46.1219C47.975 5.32263 48.7449 6.49701 48.7449 7.89371C48.7449 9.2904 47.9349 10.4155 46.0814 10.4155H41.6969L48.3328 22.4865H53.5796C53.5796 22.4865 49.0389 14.5964 49.063 14.5925C52.3401 13.5491 53.8845 11.007 53.8845 7.90579L53.884 7.90627ZM27.2084 22.4411H32.4948V0.681167H27.2084V22.4411Z" fill="black" fill-opacity="0.2"/>
</svg>
