<svg width="81" height="60" viewBox="0 0 81 60" fill="none" xmlns="http://www.w3.org/2000/svg">
<path fill-rule="evenodd" clip-rule="evenodd" d="M80.6056 57.4683H76.8465V58.4203H81V59.7976H74.769V53.783H80.9407V55.1402H76.8465V56.1122H80.6056V57.4683ZM55.782 53.9248C55.2265 53.6818 54.4959 53.5809 53.606 53.5809C52.0629 53.6215 50.9767 54.067 50.3424 54.9776C49.9856 55.4843 49.8074 56.112 49.8076 56.8606C49.8076 57.5692 50.0057 58.1371 50.3816 58.6424C50.9949 59.5523 52.0825 59.9992 53.6649 59.9992C54.8921 59.9992 55.8412 59.7361 56.4748 59.1891L57.1666 58.3797C57.4629 57.9142 57.601 57.3675 57.601 56.7594C57.5995 55.3825 57.0066 54.4305 55.7805 53.9248H55.782ZM55.4454 56.8003C55.4454 57.6306 55.1491 58.1773 54.5566 58.4809C54.3388 58.6227 54.0622 58.6834 53.7456 58.6834C53.1531 58.6834 52.6768 58.4809 52.3806 58.0768C52.0843 57.7121 51.9651 57.3068 51.9651 56.8007C51.9651 56.2946 52.0832 55.8909 52.361 55.5451C52.6768 55.0997 53.1516 54.8972 53.7456 54.8972C54.3581 54.9374 54.8332 55.1804 55.1295 55.6058C55.3483 55.9492 55.4468 56.3545 55.4468 56.8007L55.4454 56.8003ZM48.7204 57.6306H45.3967V59.7972H43.32V53.7826H49.0166V55.1398H45.3967V56.2942H48.7204V57.6306ZM69.0739 55.3825C68.6976 55.707 68.5402 56.1919 68.5402 56.8C68.5402 57.3061 68.678 57.7098 68.935 58.0351C69.2312 58.4404 69.6871 58.6417 70.2607 58.6417C70.6885 58.6436 71.105 58.5012 71.4457 58.2364C71.6439 58.0749 71.7631 57.8725 71.8613 57.6298L73.8399 57.8315L73.5229 58.5814C72.9496 59.5333 71.8416 59.9989 70.2196 59.9989L68.5387 59.7559C67.0945 59.2903 66.3624 58.3183 66.3624 56.7988C66.3624 55.9898 66.5997 55.301 67.0545 54.7334C67.7074 53.9642 68.7761 53.5582 70.2593 53.5582C72.139 53.5582 73.3259 54.1864 73.7403 55.4416L71.8024 55.8063C71.7079 55.548 71.5345 55.3278 71.308 55.1785C71.0097 54.9937 70.6679 54.8958 70.3192 54.8953C69.8249 54.8953 69.3894 55.0777 69.0724 55.3809L69.0739 55.3825ZM65.3751 55.707C65.3751 55.039 65.1377 54.5317 64.683 54.1879C64.3275 53.9248 63.7942 53.7826 63.0414 53.7826H58.7468V59.7972H60.8239V57.6105H61.9719L63.1595 59.7972H65.4729L64.0286 57.4088C64.4441 57.2666 64.7796 57.0638 64.9781 56.8212C65.2373 56.5179 65.374 56.1524 65.374 55.7077L65.3751 55.707ZM63.2587 55.707C63.2587 56.091 62.9625 56.2533 62.407 56.2533H60.8246V55.1796H62.6051C62.8421 55.1796 63.0006 55.1997 63.1395 55.3013L63.2576 55.707H63.2587ZM16.0811 56.4155C16.774 56.6585 17.1106 57.1241 17.1106 57.8323C17.1106 58.2375 17.0117 58.5821 16.8144 58.8858C16.3596 59.5944 15.3309 59.9598 13.7489 59.9598C12.6009 59.9598 11.8102 59.7369 11.3359 59.2915C11.0192 58.9882 10.8215 58.5829 10.7222 58.015L12.8001 57.9365C12.8601 58.382 13.2945 58.6246 14.0858 58.6246L14.798 58.4828C14.9957 58.3414 15.0942 58.2197 15.0942 58.0374C15.0942 57.8156 14.9754 57.6734 14.6787 57.5714L12.1665 57.0051C11.4151 56.7018 11.0185 56.1949 11.0185 55.4867C11.0185 55.0413 11.1766 54.6766 11.4732 54.2918C11.9676 53.7849 12.7979 53.5624 13.9459 53.5624L15.726 53.7849C16.4185 54.0279 16.8532 54.5348 17.0117 55.3044L14.975 55.4052C14.8761 55.0413 14.5399 54.879 13.9466 54.879C13.3137 54.879 13.0167 55.0413 13.0167 55.3446L13.096 55.5474C13.1949 55.6892 13.5115 55.8105 14.1444 55.9515L16.0819 56.4174L16.0811 56.4155ZM17.5054 58.2375H19.424V59.7972H17.5054V58.2375ZM6.92312 56.922C6.92312 57.8319 6.78462 58.5211 6.56725 58.8858C6.0925 59.6349 5.08338 60 3.46138 60C2.31339 60 1.4835 59.8377 0.989123 59.5345C0.33625 59.1899 0 58.5423 0 57.631V53.783H2.07712V57.2056C2.07712 57.6109 2.13637 57.9142 2.23525 58.0775C2.47299 58.4821 2.90775 58.6841 3.46212 58.6841C3.89724 58.6841 4.2135 58.5431 4.45124 58.3202C4.68862 58.0772 4.80712 57.7136 4.80712 57.1658V53.7834H6.92349V56.9228L6.92312 56.922ZM7.279 58.2375H9.15837V59.7972H7.279V58.2375ZM37.6419 53.7826H33.3691V59.7972H35.4659V57.6105H36.5539L37.78 59.7972H40.0926L38.6114 57.4088C39.0269 57.3068 39.3631 57.1055 39.6001 56.8212C39.8345 56.4999 39.9597 56.1088 39.9564 55.7077C39.9564 55.0397 39.719 54.5325 39.3035 54.1887C38.928 53.9255 38.4147 53.7834 37.6422 53.7834L37.6419 53.7826ZM37.0494 56.2533H35.467V55.1796H37.1879C37.4449 55.1796 37.6234 55.1997 37.7222 55.3013C37.7735 55.3548 37.8138 55.4182 37.8409 55.4877C37.868 55.5573 37.8813 55.6317 37.88 55.7066C37.8789 56.091 37.6222 56.2533 37.0483 56.2533H37.0494ZM29.7111 53.7826H31.8079V59.7972H29.71L29.7111 53.7826ZM25.2206 55.4431L25.9131 57.4683H24.567L25.2206 55.4431ZM24.0356 53.7826L21.5026 59.7972H23.7986L24.0948 58.8248H26.3497L26.6663 59.7972H28.9386L26.4071 53.7826H24.0356ZM63.7516 0L57.1644 14.0331L66.956 6.78339L63.7516 0ZM67.5892 7.85627L40.6085 27.9441L42.2309 32.9658L63.0591 17.475L67.5892 7.85627ZM61.9515 19.8645L42.6264 34.2422H51.0326L57.4236 29.4837L61.9534 19.8645H61.9515ZM42.963 37.9275C42.963 38.7377 42.6667 39.4466 42.0927 40.0126C41.5395 40.6003 40.8466 40.9039 40.0153 40.9039C39.2046 40.9039 38.5125 40.6006 37.9385 40.0126C37.3849 39.4463 37.0868 38.7373 37.0868 37.9275C37.0868 37.0772 37.383 36.3679 37.9385 35.8015C38.5125 35.2328 39.2046 34.9296 40.0153 34.9296C40.8466 34.9296 41.5387 35.2328 42.0927 35.8015C42.6656 36.3679 42.963 37.0772 42.963 37.9275ZM44.2484 39.3045L46.2481 45.6633L52.6572 40.9047L47.3757 36.976L44.2502 39.3045H44.2484ZM13.1145 6.78339L22.8861 14.0331L16.3181 0L13.1145 6.78339ZM16.9714 17.4743L37.8393 32.965L39.4631 27.9445L12.4613 7.85627L16.9714 17.4754V17.4743ZM22.6084 29.4825L29.0175 34.2422H37.4238L18.099 19.8645L22.6084 29.4837V29.4825ZM32.6766 36.9745L27.3955 40.9043L33.8239 45.6629L35.8417 39.3041L32.6766 36.9756V36.9745ZM40.0153 50.2812L45.2971 46.3737L40.0153 42.445L34.7537 46.3737L40.0153 50.2812Z" fill="#7E929C"/>
<path fill-rule="evenodd" clip-rule="evenodd" d="M80.6056 57.4683H76.8465V58.4203H81V59.7976H74.769V53.783H80.9407V55.1402H76.8465V56.1122H80.6056V57.4683ZM55.782 53.9248C55.2265 53.6818 54.4959 53.5809 53.606 53.5809C52.0629 53.6215 50.9767 54.067 50.3424 54.9776C49.9856 55.4843 49.8074 56.112 49.8076 56.8606C49.8076 57.5692 50.0057 58.1371 50.3816 58.6424C50.9949 59.5523 52.0825 59.9992 53.6649 59.9992C54.8921 59.9992 55.8412 59.7361 56.4748 59.1891L57.1666 58.3797C57.4629 57.9142 57.601 57.3675 57.601 56.7594C57.5995 55.3825 57.0066 54.4305 55.7805 53.9248H55.782ZM55.4454 56.8003C55.4454 57.6306 55.1491 58.1773 54.5566 58.4809C54.3388 58.6227 54.0622 58.6834 53.7456 58.6834C53.1531 58.6834 52.6768 58.4809 52.3806 58.0768C52.0843 57.7121 51.9651 57.3068 51.9651 56.8007C51.9651 56.2946 52.0832 55.8909 52.361 55.5451C52.6768 55.0997 53.1516 54.8972 53.7456 54.8972C54.3581 54.9374 54.8332 55.1804 55.1295 55.6058C55.3483 55.9492 55.4468 56.3545 55.4468 56.8007L55.4454 56.8003ZM48.7204 57.6306H45.3967V59.7972H43.32V53.7826H49.0166V55.1398H45.3967V56.2942H48.7204V57.6306ZM69.0739 55.3825C68.6976 55.707 68.5402 56.1919 68.5402 56.8C68.5402 57.3061 68.678 57.7098 68.935 58.0351C69.2312 58.4404 69.6871 58.6417 70.2607 58.6417C70.6885 58.6436 71.105 58.5012 71.4457 58.2364C71.6439 58.0749 71.7631 57.8725 71.8613 57.6298L73.8399 57.8315L73.5229 58.5814C72.9496 59.5333 71.8416 59.9989 70.2196 59.9989L68.5387 59.7559C67.0945 59.2903 66.3624 58.3183 66.3624 56.7988C66.3624 55.9898 66.5997 55.301 67.0545 54.7334C67.7074 53.9642 68.7761 53.5582 70.2593 53.5582C72.139 53.5582 73.3259 54.1864 73.7403 55.4416L71.8024 55.8063C71.7079 55.548 71.5345 55.3278 71.308 55.1785C71.0097 54.9937 70.6679 54.8958 70.3192 54.8953C69.8249 54.8953 69.3894 55.0777 69.0724 55.3809L69.0739 55.3825ZM65.3751 55.707C65.3751 55.039 65.1377 54.5317 64.683 54.1879C64.3275 53.9248 63.7942 53.7826 63.0414 53.7826H58.7468V59.7972H60.8239V57.6105H61.9719L63.1595 59.7972H65.4729L64.0286 57.4088C64.4441 57.2666 64.7796 57.0638 64.9781 56.8212C65.2373 56.5179 65.374 56.1524 65.374 55.7077L65.3751 55.707ZM63.2587 55.707C63.2587 56.091 62.9625 56.2533 62.407 56.2533H60.8246V55.1796H62.6051C62.8421 55.1796 63.0006 55.1997 63.1395 55.3013L63.2576 55.707H63.2587ZM16.0811 56.4155C16.774 56.6585 17.1106 57.1241 17.1106 57.8323C17.1106 58.2375 17.0117 58.5821 16.8144 58.8858C16.3596 59.5944 15.3309 59.9598 13.7489 59.9598C12.6009 59.9598 11.8102 59.7369 11.3359 59.2915C11.0192 58.9882 10.8215 58.5829 10.7222 58.015L12.8001 57.9365C12.8601 58.382 13.2945 58.6246 14.0858 58.6246L14.798 58.4828C14.9957 58.3414 15.0942 58.2197 15.0942 58.0374C15.0942 57.8156 14.9754 57.6734 14.6787 57.5714L12.1665 57.0051C11.4151 56.7018 11.0185 56.1949 11.0185 55.4867C11.0185 55.0413 11.1766 54.6766 11.4732 54.2918C11.9676 53.7849 12.7979 53.5624 13.9459 53.5624L15.726 53.7849C16.4185 54.0279 16.8532 54.5348 17.0117 55.3044L14.975 55.4052C14.8761 55.0413 14.5399 54.879 13.9466 54.879C13.3137 54.879 13.0167 55.0413 13.0167 55.3446L13.096 55.5474C13.1949 55.6892 13.5115 55.8105 14.1444 55.9515L16.0819 56.4174L16.0811 56.4155ZM17.5054 58.2375H19.424V59.7972H17.5054V58.2375ZM6.92312 56.922C6.92312 57.8319 6.78462 58.5211 6.56725 58.8858C6.0925 59.6349 5.08338 60 3.46138 60C2.31339 60 1.4835 59.8377 0.989123 59.5345C0.33625 59.1899 0 58.5423 0 57.631V53.783H2.07712V57.2056C2.07712 57.6109 2.13637 57.9142 2.23525 58.0775C2.47299 58.4821 2.90775 58.6841 3.46212 58.6841C3.89724 58.6841 4.2135 58.5431 4.45124 58.3202C4.68862 58.0772 4.80712 57.7136 4.80712 57.1658V53.7834H6.92349V56.9228L6.92312 56.922ZM7.279 58.2375H9.15837V59.7972H7.279V58.2375ZM37.6419 53.7826H33.3691V59.7972H35.4659V57.6105H36.5539L37.78 59.7972H40.0926L38.6114 57.4088C39.0269 57.3068 39.3631 57.1055 39.6001 56.8212C39.8345 56.4999 39.9597 56.1088 39.9564 55.7077C39.9564 55.0397 39.719 54.5325 39.3035 54.1887C38.928 53.9255 38.4147 53.7834 37.6422 53.7834L37.6419 53.7826ZM37.0494 56.2533H35.467V55.1796H37.1879C37.4449 55.1796 37.6234 55.1997 37.7222 55.3013C37.7735 55.3548 37.8138 55.4182 37.8409 55.4877C37.868 55.5573 37.8813 55.6317 37.88 55.7066C37.8789 56.091 37.6222 56.2533 37.0483 56.2533H37.0494ZM29.7111 53.7826H31.8079V59.7972H29.71L29.7111 53.7826ZM25.2206 55.4431L25.9131 57.4683H24.567L25.2206 55.4431ZM24.0356 53.7826L21.5026 59.7972H23.7986L24.0948 58.8248H26.3497L26.6663 59.7972H28.9386L26.4071 53.7826H24.0356ZM63.7516 0L57.1644 14.0331L66.956 6.78339L63.7516 0ZM67.5892 7.85627L40.6085 27.9441L42.2309 32.9658L63.0591 17.475L67.5892 7.85627ZM61.9515 19.8645L42.6264 34.2422H51.0326L57.4236 29.4837L61.9534 19.8645H61.9515ZM42.963 37.9275C42.963 38.7377 42.6667 39.4466 42.0927 40.0126C41.5395 40.6003 40.8466 40.9039 40.0153 40.9039C39.2046 40.9039 38.5125 40.6006 37.9385 40.0126C37.3849 39.4463 37.0868 38.7373 37.0868 37.9275C37.0868 37.0772 37.383 36.3679 37.9385 35.8015C38.5125 35.2328 39.2046 34.9296 40.0153 34.9296C40.8466 34.9296 41.5387 35.2328 42.0927 35.8015C42.6656 36.3679 42.963 37.0772 42.963 37.9275ZM44.2484 39.3045L46.2481 45.6633L52.6572 40.9047L47.3757 36.976L44.2502 39.3045H44.2484ZM13.1145 6.78339L22.8861 14.0331L16.3181 0L13.1145 6.78339ZM16.9714 17.4743L37.8393 32.965L39.4631 27.9445L12.4613 7.85627L16.9714 17.4754V17.4743ZM22.6084 29.4825L29.0175 34.2422H37.4238L18.099 19.8645L22.6084 29.4837V29.4825ZM32.6766 36.9745L27.3955 40.9043L33.8239 45.6629L35.8417 39.3041L32.6766 36.9756V36.9745ZM40.0153 50.2812L45.2971 46.3737L40.0153 42.445L34.7537 46.3737L40.0153 50.2812Z" fill="black" fill-opacity="0.2"/>
</svg>
