<svg width="219" height="148" viewBox="0 0 219 148" fill="none" xmlns="http://www.w3.org/2000/svg">
<rect x="13.4731" y="63.9945" width="59" height="20" fill="#051A26"/>
<path d="M13.9886 83.5403C13.9966 83.8463 14.083 84.1451 14.2394 84.4081C14.3958 84.6712 14.617 84.8896 14.8819 85.0425L40.1354 99.6453C41.109 100.208 42.2135 100.504 43.3378 100.504C44.4621 100.504 45.5666 100.208 46.5403 99.6453L71.7938 85.0425C72.08 84.8845 72.3157 84.6489 72.4738 84.3625C72.6318 84.0761 72.7058 83.7506 72.6871 83.424" fill="#051A26"/>
<path d="M13.9886 83.5403C13.9966 83.8463 14.083 84.1451 14.2394 84.4081C14.3958 84.6712 14.617 84.8896 14.8819 85.0425L40.1354 99.6453C41.109 100.208 42.2135 100.504 43.3378 100.504C44.4621 100.504 45.5666 100.208 46.5403 99.6453L71.7938 85.0425C72.08 84.8845 72.3157 84.6489 72.4738 84.3625C72.6318 84.0761 72.7058 83.7506 72.6871 83.424" stroke="url(#paint0_linear_1072_2823)" stroke-width="2.25" stroke-miterlimit="10"/>
<path d="M14.8728 65.1013L40.1263 79.7309C41.1016 80.2936 42.2076 80.5898 43.3333 80.5898C44.4589 80.5898 45.5648 80.2936 46.5402 79.7309L71.7937 65.1282C72.0582 64.9693 72.2772 64.7446 72.4292 64.4758C72.5812 64.2071 72.6611 63.9035 72.6611 63.5947C72.6611 63.2859 72.5812 62.9821 72.4292 62.7134C72.2772 62.4446 72.0582 62.2199 71.7937 62.061L46.5402 47.4583C45.5648 46.8956 44.4589 46.5996 43.3333 46.5996C42.2076 46.5996 41.1016 46.8956 40.1263 47.4583L14.8728 62.061C14.6143 62.2214 14.4009 62.4451 14.253 62.7112C14.105 62.9772 14.0274 63.2767 14.0274 63.5812C14.0274 63.8856 14.105 64.1851 14.253 64.4512C14.4009 64.7172 14.6143 64.9409 14.8728 65.1013Z" fill="#051A26" stroke="url(#paint1_linear_1072_2823)" stroke-width="2.25" stroke-miterlimit="10"/>
<path d="M72.6782 63.6438V83.4509" stroke="#FF9F00" stroke-width="2.25" stroke-miterlimit="10"/>
<path d="M13.9886 63.5991V83.5403" stroke="#5AD599" stroke-width="2.25" stroke-miterlimit="10"/>
<path d="M44.2445 117.557C68.1277 117.557 87.4889 98.1753 87.4889 74.2672C87.4889 50.3592 68.1277 30.9778 44.2445 30.9778C20.3612 30.9778 1 50.3592 1 74.2672C1 98.1753 20.3612 117.557 44.2445 117.557Z" stroke="#507382" stroke-width="1.18" stroke-miterlimit="10" stroke-dasharray="2.94 2.94"/>
<path d="M174.711 117.557C198.594 117.557 217.955 98.1753 217.955 74.2672C217.955 50.3592 198.594 30.9778 174.711 30.9778C150.827 30.9778 131.466 50.3592 131.466 74.2672C131.466 98.1753 150.827 117.557 174.711 117.557Z" stroke="#507382" stroke-width="1.18" stroke-miterlimit="10" stroke-dasharray="2.94 2.94"/>
<path d="M174.675 73.8201C181.636 73.8201 187.279 68.171 187.279 61.2026C187.279 54.2341 181.636 48.5851 174.675 48.5851C167.714 48.5851 162.07 54.2341 162.07 61.2026C162.07 68.171 167.714 73.8201 174.675 73.8201Z" stroke="#5AD599" stroke-width="2.25" stroke-miterlimit="10"/>
<path d="M148.653 93.216C155.606 86.5192 164.869 82.7611 174.517 82.7228C184.166 82.6845 193.458 86.3689 200.464 93.0103" stroke="#5AD599" stroke-width="2.25" stroke-miterlimit="10"/>
<path d="M197.704 99.5827H182.125V104.349H197.704V99.5827Z" fill="#5AD599"/>
<path d="M60.6187 21.1592C73.8057 8.8793 91.1382 2.03662 109.149 2.00015C127.159 1.96367 144.519 8.73612 157.756 20.9625" stroke="#5AD599" stroke-width="2.25" stroke-miterlimit="10"/>
<path d="M158.033 9.70421V22.1786H145.571" stroke="#5AD599" stroke-width="2.25" stroke-miterlimit="10"/>
<path d="M158.033 126.83C144.846 139.109 127.513 145.952 109.503 145.989C91.4923 146.025 74.1322 139.253 60.8958 127.026" stroke="#5AD599" stroke-width="2.25" stroke-miterlimit="10"/>
<path d="M60.6187 138.285V125.81H73.0802" stroke="#5AD599" stroke-width="2.25" stroke-miterlimit="10"/>
<defs>
<linearGradient id="paint0_linear_1072_2823" x1="73.6876" y1="92.4468" x2="12.9791" y2="92.4468" gradientUnits="userSpaceOnUse">
<stop stop-color="#FF9F00"/>
<stop offset="1" stop-color="#5AD599"/>
</linearGradient>
<linearGradient id="paint1_linear_1072_2823" x1="73.6785" y1="63.5723" x2="12.979" y2="63.5723" gradientUnits="userSpaceOnUse">
<stop stop-color="#FF9F00"/>
<stop offset="1" stop-color="#5AD599"/>
</linearGradient>
</defs>
</svg>
