<svg width="100" height="180" viewBox="0 0 100 180" fill="none" xmlns="http://www.w3.org/2000/svg">
<path d="M89.6914 50.0761L55.9432 85.3423C55.2563 85.9224 54.7044 86.6454 54.3257 87.4607C53.9471 88.2761 53.7509 89.1643 53.7509 90.0633C53.7509 90.9622 53.9471 91.8502 54.3257 92.6656C54.7044 93.481 55.2563 94.2039 55.9432 94.784L89.6914 130.05C90.3788 130.63 90.9309 131.352 91.309 132.168C91.6871 132.984 91.8819 133.872 91.8798 134.771V168.386H7.54943V134.771C7.5472 133.871 7.74281 132.982 8.12236 132.166C8.50192 131.351 9.05614 130.628 9.74586 130.05L43.486 94.784C44.1754 94.2055 44.7296 93.4831 45.1099 92.6676C45.4901 91.852 45.6872 90.9631 45.6872 90.0633C45.6872 89.1634 45.4901 88.2745 45.1099 87.4589C44.7296 86.6434 44.1754 85.9208 43.486 85.3423L9.74586 50.0761C9.05637 49.4962 8.50243 48.7723 8.12295 47.9553C7.74347 47.1383 7.54767 46.2481 7.54943 45.3473V11.7322H91.8798V45.3473C91.8809 46.2472 91.6857 47.1366 91.3077 47.9534C90.9297 48.7701 90.3782 49.4944 89.6914 50.0761V50.0761Z" stroke="#507382" stroke-width="1.18" stroke-miterlimit="10" stroke-dasharray="2.94 2.94"/>
<path d="M98.998 168.322H1V178.998H98.998V168.322Z" stroke="#FF9F00" stroke-width="1.25" stroke-linecap="round" stroke-linejoin="round"/>
<path d="M98.998 1H1V11.676H98.998V1Z" stroke="#5AD599" stroke-width="1.25" stroke-linecap="round" stroke-linejoin="round"/>
<path d="M85.4827 163.553V134.346L79.4224 128.287C71.5424 120.411 60.8565 115.986 49.7144 115.986C38.5724 115.986 27.8864 120.411 20.0064 128.287L13.9462 134.346V163.545L85.4827 163.553Z" fill="url(#paint0_linear_1072_2833)"/>
<path d="M38.6762 69.8492L49.7145 80.894L60.7608 69.8492H38.6762Z" fill="#5AD599"/>
<path d="M49.1788 97.889L47.2459 99.8216L49.1788 101.754L51.1116 99.8216L49.1788 97.889Z" fill="#5AD599"/>
<path d="M49.1748 106.381L47.2419 108.314L49.1749 110.246L51.1078 108.314L49.1748 106.381Z" fill="#5AD599"/>
<defs>
<linearGradient id="paint0_linear_1072_2833" x1="49.7144" y1="163.553" x2="49.7144" y2="115.984" gradientUnits="userSpaceOnUse">
<stop stop-color="#FF9F00"/>
<stop offset="1" stop-color="#5AD599"/>
</linearGradient>
</defs>
</svg>
