<svg width="420" height="583" viewBox="0 0 420 583" fill="none" xmlns="http://www.w3.org/2000/svg">
<path d="M347.05 198.18L271.4 153.84L272.11 9.73999" stroke="#507382" stroke-width="1.18" stroke-miterlimit="10"/>
<path d="M347.27 172.02L292.35 140.31L293.06 26.14" stroke="#507382" stroke-width="1.18" stroke-miterlimit="10"/>
<path d="M347.05 146.64L312.3 127.35L313.02 42" stroke="#507382" stroke-width="1.18" stroke-miterlimit="10"/>
<path d="M347.49 123.25L331.75 114.38L332.46 54.3101" stroke="#507382" stroke-width="1.18" stroke-miterlimit="10"/>
<path d="M270.42 355.71V311.24L308.93 289" stroke="#FF9F00" stroke-width="2" stroke-linecap="round" stroke-linejoin="round"/>
<path d="M270.42 311.24V355.71L173.93 300.06V255.58L270.42 311.24Z" stroke="#FF9F00" stroke-width="2" stroke-linecap="round" stroke-linejoin="round"/>
<path d="M308.93 289L270.42 311.24L173.93 255.58L212.44 233.34L308.93 289Z" stroke="#FF9F00" stroke-width="2" stroke-linecap="round" stroke-linejoin="round"/>
<path d="M308.98 289.06V244.59L347.5 222.35V265.73" stroke="#FF9F00" stroke-width="2" stroke-linecap="round" stroke-linejoin="round"/>
<path d="M308.98 244.59V289.06L212.49 233.41V188.93L308.98 244.59Z" stroke="#FF9F00" stroke-width="2" stroke-linecap="round" stroke-linejoin="round"/>
<path d="M347.5 222.35L308.98 244.59L212.49 188.93L251 166.7L347.5 222.35Z" stroke="#FF9F00" stroke-width="2" stroke-linecap="round" stroke-linejoin="round"/>
<path d="M1 321.68L67.88 282.73L135.38 321.7" stroke="#C8D3D9" stroke-width="2" stroke-linecap="round" stroke-linejoin="round"/>
<path d="M135.38 321.57L67.88 360.55L1 321.68" stroke="#C8D3D9" stroke-width="2" stroke-linecap="round" stroke-linejoin="round"/>
<path d="M135.38 344.19L67.88 383.17L1 344.29" stroke="#C8D3D9" stroke-width="2" stroke-linecap="round" stroke-linejoin="round"/>
<path d="M135.38 367.24L67.88 406.22L1 367.35" stroke="#C8D3D9" stroke-width="2" stroke-linecap="round" stroke-linejoin="round"/>
<path d="M135.38 321.57V367.05" stroke="#C8D3D9" stroke-width="2" stroke-linecap="round" stroke-linejoin="round"/>
<path d="M1 321.81V440.41L68.38 484.11L68.51 360.66" stroke="#C8D3D9" stroke-width="2" stroke-linecap="round" stroke-linejoin="round"/>
<path d="M347.62 58.9L347.5 222.35L251 166.7L252.4 1L347.62 58.9Z" stroke="#C8D3D9" stroke-width="2" stroke-linecap="round" stroke-linejoin="round"/>
<path d="M343.72 14.72C345.399 14.72 346.76 13.359 346.76 11.68C346.76 10.0011 345.399 8.64001 343.72 8.64001C342.041 8.64001 340.68 10.0011 340.68 11.68C340.68 13.359 342.041 14.72 343.72 14.72Z" fill="#5AD599"/>
<path d="M374.365 183.031L368.093 189.303L374.365 195.575L380.637 189.303L374.365 183.031Z" fill="#FF9F00"/>
<path d="M147.41 172.78L144.77 162.59" stroke="#5AD599" stroke-width="2" stroke-linecap="round" stroke-linejoin="round"/>
<path d="M151.18 166.36L141 169.01" stroke="#5AD599" stroke-width="2" stroke-linecap="round" stroke-linejoin="round"/>
<path d="M208.04 99.57C209.719 99.57 211.08 98.2089 211.08 96.53C211.08 94.851 209.719 93.49 208.04 93.49C206.361 93.49 205 94.851 205 96.53C205 98.2089 206.361 99.57 208.04 99.57Z" fill="#C8D3D9"/>
<path d="M203.714 149.185L197.868 145.75L194.433 151.595L200.279 155.03L203.714 149.185Z" fill="#507382"/>
<path d="M236.72 502.99L236.19 581.41L68.38 484.19L68.53 405.98L236.72 502.99Z" stroke="url(#paint0_linear_1072_2957)" stroke-width="2" stroke-linecap="round" stroke-linejoin="round"/>
<path d="M236.72 502.99L68.53 405.98L135.66 367.22L231.92 422.41" stroke="url(#paint1_linear_1072_2957)" stroke-width="2" stroke-linecap="round" stroke-linejoin="round"/>
<path d="M231.91 422.38V377.91L270.42 355.67" stroke="#FF9F00" stroke-width="2" stroke-linecap="round" stroke-linejoin="round"/>
<path d="M231.91 377.91V422.38L135.41 366.73V322.25L231.91 377.91Z" stroke="#FF9F00" stroke-width="2" stroke-linecap="round" stroke-linejoin="round"/>
<path d="M270.42 355.67L231.91 377.91L135.41 322.25L173.93 300.02L270.42 355.67Z" stroke="#FF9F00" stroke-width="2" stroke-linecap="round" stroke-linejoin="round"/>
<path d="M347.55 262.97V362.4" stroke="#FF9F00" stroke-width="2" stroke-linecap="round" stroke-linejoin="round"/>
<path d="M418.12 403.93L417.99 485.05L236.19 581.41" stroke="#5AD599" stroke-width="2" stroke-linecap="round" stroke-linejoin="round"/>
<path d="M231.92 422.41L347.65 363.16L417.76 403.73L236.72 502.99" stroke="#5AD599" stroke-width="2" stroke-linecap="round" stroke-linejoin="round"/>
<defs>
<linearGradient id="paint0_linear_1072_2957" x1="67.38" y1="493.7" x2="237.72" y2="493.7" gradientUnits="userSpaceOnUse">
<stop stop-color="#FF9F00"/>
<stop offset="1" stop-color="#5AD599"/>
</linearGradient>
<linearGradient id="paint1_linear_1072_2957" x1="67.53" y1="435.1" x2="1.00003" y2="435.1" gradientUnits="userSpaceOnUse">
<stop stop-color="#FF9F00"/>
<stop offset="1" stop-color="#5AD599"/>
</linearGradient>
</defs>
</svg>
