<svg width="165" height="188" viewBox="0 0 165 188" fill="none" xmlns="http://www.w3.org/2000/svg">
<rect x="10.4805" y="42.0333" width="144" height="52" fill="#051A26"/>
<path d="M9.66708 93.3424C9.6778 94.0986 9.88574 94.8388 10.2704 95.4901C10.655 96.1414 11.2029 96.6813 11.8602 97.0562L74.3951 133.139C76.8052 134.529 79.5391 135.261 82.3221 135.261C85.105 135.261 87.8389 134.529 90.249 133.139L152.784 97.0562C153.48 96.6537 154.052 96.0688 154.439 95.3644C154.825 94.6601 155.011 93.8635 154.977 93.061" fill="#051A26"/>
<path d="M9.66708 93.3424C9.6778 94.0986 9.88574 94.8388 10.2704 95.4901C10.655 96.1414 11.2029 96.6813 11.8602 97.0562L74.3951 133.139C76.8052 134.529 79.5391 135.261 82.3221 135.261C85.105 135.261 87.8389 134.529 90.249 133.139L152.784 97.0562C153.48 96.6537 154.052 96.0688 154.439 95.3644C154.825 94.6601 155.011 93.8635 154.977 93.061" stroke="url(#paint0_linear_1072_2807)" stroke-width="2.25" stroke-miterlimit="10"/>
<path d="M11.8599 47.7995L74.3948 83.8818C76.8049 85.2721 79.5388 86.0042 82.3218 86.0042C85.1047 86.0042 87.8386 85.2721 90.2487 83.8818L152.784 47.7995C153.447 47.4115 153.997 46.857 154.379 46.1908C154.762 45.5246 154.963 44.77 154.963 44.0021C154.963 43.2342 154.762 42.4795 154.379 41.8133C153.997 41.1471 153.447 40.5926 152.784 40.2047L90.2487 4.12236C87.8386 2.73202 85.1047 2 82.3218 2C79.5388 2 76.8049 2.73202 74.3948 4.12236L11.8599 40.2047C11.1966 40.5926 10.6466 41.1471 10.2643 41.8133C9.88202 42.4795 9.68085 43.2342 9.68085 44.0021C9.68085 44.77 9.88202 45.5246 10.2643 46.1908C10.6466 46.857 11.1966 47.4115 11.8599 47.7995Z" fill="#051A26" stroke="url(#paint1_linear_1072_2807)" stroke-width="2.25" stroke-miterlimit="10"/>
<path d="M154.933 44.1913V93.1225" stroke="#FF9F00" stroke-width="2.25" stroke-miterlimit="10"/>
<path d="M9.67575 44.0945V93.3425" stroke="#5AD599" stroke-width="1.5" stroke-miterlimit="10"/>
<path d="M28.1014 186.514C43.0691 186.514 55.2028 174.39 55.2028 159.435C55.2028 144.479 43.0691 132.355 28.1014 132.355C13.1337 132.355 1 144.479 1 159.435C1 174.39 13.1337 186.514 28.1014 186.514Z" stroke="#507382" stroke-width="1.18" stroke-miterlimit="10" stroke-dasharray="2.94 2.94"/>
<path d="M17.8053 149.147L38.3977 169.723" stroke="#FF9F00" stroke-width="2.25" stroke-miterlimit="10"/>
<path d="M38.3977 149.147L17.8053 169.723" stroke="#FF9F00" stroke-width="2.25" stroke-miterlimit="10"/>
<path d="M136.859 186.514C151.827 186.514 163.961 174.39 163.961 159.435C163.961 144.479 151.827 132.355 136.859 132.355C121.892 132.355 109.758 144.479 109.758 159.435C109.758 174.39 121.892 186.514 136.859 186.514Z" stroke="#507382" stroke-width="1.18" stroke-miterlimit="10" stroke-dasharray="2.94 2.94"/>
<path d="M125.48 160.887L134.517 169.362L147.164 148.064" stroke="#5AD599" stroke-width="2.25" stroke-miterlimit="10"/>
<defs>
<linearGradient id="paint0_linear_1072_2807" x1="155.928" y1="114.622" x2="8.68061" y2="114.622" gradientUnits="userSpaceOnUse">
<stop stop-color="#FF9F00"/>
<stop offset="1" stop-color="#5AD599"/>
</linearGradient>
<linearGradient id="paint1_linear_1072_2807" x1="155.919" y1="44.0065" x2="8.67146" y2="44.0065" gradientUnits="userSpaceOnUse">
<stop stop-color="#FF9F00"/>
<stop offset="1" stop-color="#5AD599"/>
</linearGradient>
</defs>
</svg>
