<svg width="21" height="21" viewBox="0 0 21 21" fill="none" xmlns="http://www.w3.org/2000/svg">
<path d="M19.4639 0.000133472H1.55634C1.35461 -0.00251274 1.15431 0.0342121 0.966915 0.108235C0.779525 0.182257 0.608733 0.292141 0.464213 0.431561C0.319694 0.57098 0.204238 0.737224 0.124596 0.920811C0.0449543 1.1044 0.00263684 1.30172 0 1.50151V19.5181C0.0026058 19.717 0.0450775 19.9134 0.124966 20.0959C0.204855 20.2783 0.320649 20.4433 0.465447 20.5811C0.610245 20.719 0.78124 20.8269 0.968519 20.8987C1.1558 20.9705 1.35559 21.0048 1.55634 20.9995H19.4639C19.663 21.0021 19.8606 20.9659 20.0455 20.8929C20.2305 20.8198 20.3991 20.7115 20.5417 20.5739C20.6844 20.4363 20.7983 20.2723 20.8769 20.0912C20.9555 19.91 20.9974 19.7153 21 19.5181V1.50151C20.9947 1.10149 20.8306 0.71965 20.5431 0.438647C20.2556 0.157645 19.8678 9.88399e-05 19.4639 0.000133472V0.000133472ZM6.34651 17.5363H3.17325V8.08759H6.34651V17.5363ZM4.76993 6.78638C4.54659 6.80006 4.32286 6.76824 4.11241 6.69291C3.90197 6.61757 3.70932 6.50031 3.54643 6.34835C3.38353 6.1964 3.25388 6.01298 3.16536 5.80943C3.07684 5.60588 3.03133 5.38652 3.03176 5.16489C3.00332 4.81186 3.08299 4.45854 3.26035 4.15102C3.4377 3.8435 3.70458 3.59605 4.02606 3.44098C4.34753 3.28591 4.70863 3.23044 5.06243 3.28175C5.41623 3.33306 5.74627 3.48878 6.00936 3.72863C6.27245 3.96848 6.45646 4.2813 6.53735 4.62628C6.61824 4.97125 6.59228 5.33234 6.46284 5.66248C6.3334 5.99261 6.10649 6.27643 5.81173 6.47692C5.51697 6.67741 5.16797 6.78525 4.8104 6.78638H4.76993ZM17.7863 17.5363H14.6333V12.4516C14.6333 11.1904 14.1684 10.3296 13.0163 10.3296C12.6594 10.3351 12.3123 10.4469 12.0203 10.6504C11.7283 10.8539 11.5049 11.1397 11.3792 11.4707C11.3342 11.7223 11.3342 11.9798 11.3792 12.2314V17.5162H8.20595C8.20595 17.5162 8.20595 8.94836 8.20595 8.06755H11.3792V9.38878C11.6674 8.89317 12.0875 8.48546 12.5936 8.21011C13.0997 7.93476 13.6723 7.80236 14.2492 7.82734C16.2704 7.82734 17.8874 9.1886 17.8874 12.0913L17.7863 17.5363Z" fill="#FF9F00"/>
</svg>
