<svg width="36" height="41" viewBox="0 0 36 41" fill="none" xmlns="http://www.w3.org/2000/svg">
<path d="M34.0282 12.5386L22.4566 19.2779C21.1125 20.056 19.5897 20.4654 18.0399 20.4654C16.4901 20.4654 14.9673 20.056 13.6232 19.2779L2.05156 12.5386C1.75673 12.3655 1.51207 12.1175 1.34203 11.8192C1.17199 11.521 1.08252 11.183 1.08252 10.839C1.08252 10.495 1.17199 10.157 1.34203 9.85876C1.51207 9.56052 1.75673 9.31245 2.05156 9.13934L13.6232 2.40754C14.9661 1.62583 16.4893 1.21429 18.0399 1.21429C19.5905 1.21429 21.1137 1.62583 22.4566 2.40754L34.0282 9.13934C34.3231 9.31245 34.5677 9.56052 34.7378 9.85876C34.9078 10.157 34.9973 10.495 34.9973 10.839C34.9973 11.183 34.9078 11.521 34.7378 11.8192C34.5677 12.1175 34.3231 12.3655 34.0282 12.5386V12.5386Z" stroke="#5AD599" stroke-width="2" stroke-linecap="round" stroke-linejoin="round"/>
<path d="M34.7792 18.5654L22.4567 25.7128C21.1138 26.4945 19.5906 26.9061 18.04 26.9061C16.4894 26.9061 14.9662 26.4945 13.6233 25.7128L1.29346 18.4467" stroke="#5AD599" stroke-width="2" stroke-linecap="round" stroke-linejoin="round"/>
<path d="M34.7792 24.9112L22.4567 32.0587C21.1138 32.8404 19.5906 33.2519 18.04 33.2519C16.4894 33.2519 14.9662 32.8404 13.6233 32.0587L1.29346 24.7925" stroke="#5AD599" stroke-width="2" stroke-linecap="round" stroke-linejoin="round"/>
<path d="M35.0001 10.7426L34.9486 28.6817C34.9476 29.2297 34.8087 29.7684 34.5447 30.2475C34.2808 30.7265 33.9005 31.1301 33.4396 31.4204L22.4568 38.3526C21.1127 39.1307 19.5899 39.5402 18.0401 39.5402C16.4903 39.5402 14.9675 39.1307 13.6234 38.3526L2.6848 31.9622C2.19688 31.6756 1.79196 31.2651 1.51041 30.7715C1.22885 30.278 1.08048 29.7186 1.08008 29.1493V10.5941" stroke="#5AD599" stroke-width="2" stroke-linecap="round" stroke-linejoin="round"/>
</svg>
