<svg width="36" height="41" viewBox="0 0 36 41" fill="none" xmlns="http://www.w3.org/2000/svg">
<path d="M33.9483 12.3243L22.3766 19.0636C21.0326 19.8417 19.5098 20.2511 17.96 20.2511C16.4101 20.2511 14.8873 19.8417 13.5433 19.0636L1.97164 12.3243C1.67681 12.1512 1.43214 11.9032 1.2621 11.6049C1.09206 11.3067 1.00259 10.9687 1.00259 10.6247C1.00259 10.2807 1.09206 9.9427 1.2621 9.64446C1.43214 9.34622 1.67681 9.09816 1.97164 8.92504L13.5433 2.19324C14.8861 1.41154 16.4094 1 17.96 1C19.5105 1 21.0338 1.41154 22.3766 2.19324L33.9483 8.92504C34.2431 9.09816 34.4878 9.34622 34.6578 9.64446C34.8279 9.9427 34.9174 10.2807 34.9174 10.6247C34.9174 10.9687 34.8279 11.3067 34.6578 11.6049C34.4878 11.9032 34.2431 12.1512 33.9483 12.3243V12.3243Z" stroke="#5AD599" stroke-width="2" stroke-linecap="round" stroke-linejoin="round"/>
<path d="M34.6992 18.3511L22.3767 25.4985C21.0339 26.2802 19.5106 26.6918 17.96 26.6918C16.4094 26.6918 14.8862 26.2802 13.5433 25.4985L1.21347 18.2324" stroke="#5AD599" stroke-width="2" stroke-linecap="round" stroke-linejoin="round"/>
<path d="M34.6992 24.6969L22.3767 31.8444C21.0339 32.6261 19.5106 33.0376 17.96 33.0376C16.4094 33.0376 14.8862 32.6261 13.5433 31.8444L1.21347 24.5782" stroke="#5AD599" stroke-width="2" stroke-linecap="round" stroke-linejoin="round"/>
<path d="M34.92 10.5283L34.8685 28.4674C34.8675 29.0154 34.7286 29.5541 34.4646 30.0332C34.2007 30.5122 33.8204 30.9158 33.3595 31.2061L22.3767 38.1383C21.0326 38.9164 19.5098 39.3259 17.96 39.3259C16.4102 39.3259 14.8874 38.9164 13.5433 38.1383L2.60472 31.7479C2.1168 31.4613 1.71188 31.0508 1.43033 30.5572C1.14877 30.0637 1.00041 29.5043 1 28.935V10.3798" stroke="#5AD599" stroke-width="2" stroke-linecap="round" stroke-linejoin="round"/>
</svg>
