<svg width="38" height="39" viewBox="0 0 38 39" fill="none" xmlns="http://www.w3.org/2000/svg">
<path d="M14.8131 17.8517C14.1053 17.8596 13.4035 17.719 12.7515 17.4386C12.1379 17.176 11.5808 16.7935 11.1118 16.3128C10.6393 15.8264 10.2683 15.2478 10.0213 14.6118C9.75518 13.9514 9.61993 13.244 9.62329 12.5302V12.5302C9.61655 11.8195 9.74919 11.1146 10.0134 10.4567C10.5226 9.1698 11.5132 8.14136 12.7674 7.59751C13.4368 7.30912 14.1579 7.16569 14.8847 7.17633C15.3122 7.17233 15.739 7.21304 16.1583 7.29782C16.5202 7.36566 16.873 7.47714 17.209 7.62991C17.5254 7.76266 17.8247 7.93401 18.1005 8.1402C18.3804 8.33701 18.6463 8.55352 18.8965 8.78816L17.7184 10.0841C17.3304 9.7177 16.8969 9.40455 16.4289 9.15266C15.9344 8.90453 15.3882 8.78223 14.837 8.79627C14.3731 8.79258 13.914 8.89208 13.4918 9.08785C13.0876 9.28422 12.7252 9.55941 12.4251 9.89782C12.1215 10.2352 11.8838 10.6283 11.7247 11.0561C11.5611 11.5129 11.4776 11.9954 11.4779 12.4816V12.4816C11.4783 12.9704 11.5618 13.4555 11.7247 13.9153C11.8838 14.348 12.1214 14.7464 12.4251 15.0897C12.723 15.4305 13.0859 15.7061 13.4918 15.8997C13.914 16.0955 14.3731 16.195 14.837 16.1913C15.3891 16.2055 15.936 16.0802 16.4289 15.8268C16.9114 15.5592 17.3581 15.2299 17.7582 14.8467L18.9044 16.0293C18.6605 16.3053 18.3943 16.56 18.1084 16.7907C17.8192 17.0116 17.51 17.2041 17.1851 17.3657C16.8406 17.5345 16.477 17.6596 16.1026 17.7383C15.6774 17.8189 15.2455 17.8568 14.8131 17.8517V17.8517Z" fill="#5AD599"/>
<path d="M20.417 10.9346V14.3851" stroke="#5AD599" stroke-width="2" stroke-linecap="square" stroke-linejoin="round"/>
<path d="M18.7139 12.6599H22.1127" stroke="#5AD599" stroke-width="2" stroke-linecap="square" stroke-linejoin="round"/>
<path d="M26.0605 10.9346V14.3851" stroke="#5AD599" stroke-width="2" stroke-linecap="square" stroke-linejoin="round"/>
<path d="M24.3652 12.6599H27.7641" stroke="#5AD599" stroke-width="2" stroke-linecap="square" stroke-linejoin="round"/>
<path d="M38 5.2243C38 5.10623 37.9772 4.98932 37.9328 4.88024C37.8884 4.77116 37.8233 4.67205 37.7412 4.58857C37.6592 4.50508 37.5618 4.43885 37.4546 4.39366C37.3474 4.34848 37.2325 4.32523 37.1165 4.32523H32.2531V0.899066C32.2531 0.660619 32.16 0.431931 31.9943 0.263324C31.8286 0.0947164 31.6038 0 31.3695 0H6.63053C6.39621 0 6.17146 0.0947164 6.00576 0.263324C5.84007 0.431931 5.74696 0.660619 5.74696 0.899066V4.32523H0.891514C0.656447 4.32522 0.430884 4.41968 0.263923 4.58806C0.0969621 4.75644 0.00212082 4.98511 2.20097e-05 5.2243V11.615C-0.00261806 12.9034 0.232273 14.181 0.692519 15.3813C2.2208 19.3583 5.14998 22.0069 8.34186 22.3146C10.5547 26.0405 13.6033 28.4785 16.9464 29.1832C17.3325 29.2648 17.7233 29.3216 18.1165 29.3533V32.1396C17.6946 32.1396 17.3205 32.2125 16.9862 32.2611C13.1257 32.9009 10.4194 35.2822 10.3955 38.0928C10.3981 38.2669 10.4507 38.4363 10.5469 38.5803C10.6431 38.7242 10.7786 38.8363 10.9368 38.9028C11.0463 38.9553 11.1659 38.9829 11.287 38.9838H26.721C26.8388 38.9838 26.9554 38.959 27.0633 38.9109C27.2283 38.8404 27.3685 38.7206 27.4652 38.5673C27.5618 38.414 27.6104 38.2344 27.6045 38.0523C27.6045 35.266 24.8823 32.8847 21.0218 32.253C20.6954 32.1963 20.3293 32.1558 19.8915 32.1234V29.3614C20.2847 29.3302 20.6756 29.2734 21.0616 29.1913C24.4047 28.4866 27.4294 26.0486 29.6661 22.3227C32.8501 22.0149 35.7872 19.3744 37.3155 15.3975C37.7724 14.1936 38.0045 12.9136 38 11.623V5.2243ZM2.3402 14.7252C1.96198 13.7337 1.77026 12.6786 1.77504 11.615V6.12335H5.75493V13.4779C5.748 15.3866 6.09364 17.2797 6.7738 19.0586C6.91708 19.4392 7.08424 19.8685 7.27527 20.2492C5.19777 19.5202 3.41477 17.5439 2.3402 14.7333V14.7252ZM20.7352 34.043C23.163 34.4399 25.0972 35.6629 25.6623 37.1938H12.3377C12.9108 35.6872 14.845 34.4399 17.2728 34.043C18.4201 33.8594 19.5888 33.8621 20.7352 34.0511V34.043ZM30.486 13.4698C30.4924 15.1568 30.1873 16.8301 29.5865 18.4025C27.708 23.2623 24.3888 26.648 20.6955 27.4174V27.6199V27.4174C19.5774 27.6565 18.4227 27.6565 17.3046 27.4174C13.6112 26.6075 10.292 23.2704 8.41352 18.4025C7.81204 16.8303 7.5069 15.1569 7.51406 13.4698V1.80623H30.486V13.4698ZM36.233 11.6069C36.2378 12.6731 36.0461 13.7309 35.6678 14.7252C34.5853 17.5358 32.8023 19.5202 30.7327 20.2492C30.9238 19.8199 31.0909 19.4392 31.2342 19.0586C31.915 17.2771 32.2606 15.3812 32.2531 13.4698V6.12335H36.233V11.6069Z" fill="#5AD599"/>
</svg>
