<svg width="28" height="20" viewBox="0 0 28 20" fill="none" xmlns="http://www.w3.org/2000/svg">
<path d="M27.4184 3.12006C27.2574 2.51788 26.9445 1.96856 26.5105 1.52612C26.0765 1.08369 25.5364 0.763378 24.9433 0.596692C22.7589 -1.41406e-06 14 0 14 0C14 0 5.24823 -1.41406e-06 3.06384 0.596692C2.4707 0.763378 1.93058 1.08369 1.4966 1.52612C1.06261 1.96856 0.749692 2.51788 0.588643 3.12006C-9.51138e-06 5.34867 0 10 0 10C0 10 -9.51138e-06 14.6441 0.588643 16.8728C0.748616 17.4763 1.06105 18.0271 1.4951 18.4708C1.92916 18.9146 2.46985 19.236 3.06384 19.4033C5.24823 20 14 20 14 20C14 20 22.7589 20 24.9433 19.4033C25.5373 19.236 26.0779 18.9146 26.512 18.4708C26.946 18.0271 27.2585 17.4763 27.4184 16.8728C28 14.6441 28 10 28 10C28 10 28 5.34867 27.4184 3.12006ZM11.1064 14.22V5.78002L18.4255 10L11.1064 14.22Z" fill="#FF9F00"/>
</svg>
