<svg width="17" height="17" viewBox="0 0 17 17" fill="none" xmlns="http://www.w3.org/2000/svg">
<path fill-rule="evenodd" clip-rule="evenodd" d="M6.91683 13.25C3.41903 13.25 0.583496 10.4144 0.583496 6.91665C0.583496 3.41884 3.41903 0.583313 6.91683 0.583313C10.4146 0.583313 13.2502 3.41884 13.2502 6.91665C13.2502 8.38021 12.7537 9.72782 11.9201 10.8003L16.185 15.0652L15.0654 16.1848L10.8005 11.9199C9.72801 12.7535 8.38039 13.25 6.91683 13.25ZM11.6668 6.91665C11.6668 9.54 9.54018 11.6666 6.91683 11.6666C4.29348 11.6666 2.16683 9.54 2.16683 6.91665C2.16683 4.29329 4.29348 2.16665 6.91683 2.16665C9.54018 2.16665 11.6668 4.29329 11.6668 6.91665Z" fill="white"/>
</svg>
