<svg width="25" height="26" viewBox="0 0 25 26" fill="none" xmlns="http://www.w3.org/2000/svg">
<path fill-rule="evenodd" clip-rule="evenodd" d="M12.4821 0.0550832C9.51634 0.0594588 6.64872 1.14506 4.3916 3.11792C2.13448 5.09077 0.634874 7.82235 0.160776 10.8246C-0.313322 13.8268 0.268956 16.9041 1.80355 19.5067C3.33815 22.1092 5.72512 24.0675 8.53793 25.0315C9.15948 25.1495 9.38967 24.7561 9.38967 24.4177C9.38967 24.0793 9.38967 23.3082 9.38967 22.238C5.90594 23.0249 5.17697 20.5146 5.17697 20.5146C4.94739 19.7401 4.45461 19.0756 3.78809 18.6418C2.65242 17.8549 3.87248 17.8549 3.87248 17.8549C4.26908 17.9116 4.64791 18.0601 4.98027 18.2891C5.31263 18.5182 5.5898 18.8218 5.79084 19.1769C5.95976 19.4935 6.18834 19.7725 6.46334 19.9976C6.73833 20.2228 7.05424 20.3896 7.39268 20.4885C7.73112 20.5873 8.08534 20.6162 8.43476 20.5734C8.78417 20.5306 9.12181 20.417 9.42803 20.2392C9.47928 19.595 9.75109 18.9901 10.1954 18.5316C7.41759 18.2011 4.50171 17.1073 4.50171 12.1892C4.48629 10.9159 4.94769 9.68515 5.79084 8.75039C5.4067 7.64547 5.45063 6.43151 5.91359 5.35883C5.91359 5.35883 6.96488 5.01259 9.35132 6.67296C11.3979 6.09586 13.5585 6.09586 15.6051 6.67296C17.9916 5.01259 19.0428 5.35883 19.0428 5.35883C19.5058 6.43151 19.5497 7.64547 19.1656 8.75039C20.0115 9.6834 20.4733 10.9154 20.4547 12.1892C20.4547 17.1152 17.5312 18.2011 14.7457 18.4844C15.0402 18.7951 15.2675 19.1658 15.413 19.5726C15.5584 19.9793 15.6187 20.4129 15.5898 20.8451C15.5898 22.5606 15.5898 23.9377 15.5898 24.3626C15.5898 24.7875 15.82 25.1023 16.4492 24.9764C19.2633 24.0119 21.651 22.0524 23.1855 19.4482C24.72 16.8441 25.3012 13.765 24.8251 10.7618C24.349 7.75848 22.8466 5.0268 20.5868 3.0552C18.3269 1.0836 15.4568 0.000651142 12.4897 0L12.4821 0.0550832Z" fill="#FF9F00"/>
</svg>
