<svg width="40" height="48" viewBox="0 0 40 48" fill="none" xmlns="http://www.w3.org/2000/svg">
<path d="M24.546 11.9837L37.2919 19.3577C37.6167 19.5474 37.8862 19.8191 38.0735 20.1457C38.2608 20.4724 38.3593 20.8427 38.3593 21.2195C38.3593 21.5963 38.2608 21.9666 38.0735 22.2932C37.8862 22.6199 37.6167 22.8917 37.2919 23.0813L24.546 30.4553C23.0669 31.3116 21.389 31.7623 19.6811 31.7623C17.9732 31.7623 16.2954 31.3116 14.8163 30.4553L2.0784 23.0813C1.75159 22.8933 1.48008 22.6222 1.29125 22.2953C1.10241 21.9684 1.00293 21.5973 1.00293 21.2195C1.00293 20.8417 1.10241 20.4706 1.29125 20.1437C1.48008 19.8168 1.75159 19.5457 2.0784 19.3577L14.8163 11.9837" stroke="#5AD599" stroke-width="2" stroke-linecap="round" stroke-linejoin="round"/>
<path d="M26.8565 18.9106L19.6727 25.5041L12.4971 18.9106" stroke="#5AD599" stroke-width="2" stroke-linecap="round" stroke-linejoin="round"/>
<path d="M38.1272 29.6829L24.5462 37.5122C23.0671 38.3685 21.3892 38.8193 19.6813 38.8193C17.9734 38.8193 16.2955 38.3685 14.8164 37.5122L1.23535 29.5528" stroke="#5AD599" stroke-width="2" stroke-linecap="round" stroke-linejoin="round"/>
<path d="M38.3621 21.1545L38.3135 34.4878C38.31 35.0885 38.1551 35.6786 37.8631 36.2032C37.5711 36.7277 37.1514 37.1696 36.6432 37.4878L24.5459 45.0732C23.0668 45.9295 21.389 46.3803 19.6811 46.3803C17.9731 46.3803 16.2953 45.9295 14.8162 45.0732L2.76756 38.0732C2.22966 37.7618 1.78306 37.3138 1.47276 36.7743C1.16246 36.2348 0.999414 35.6228 1 35V21" stroke="#5AD599" stroke-width="2" stroke-linecap="round" stroke-linejoin="round"/>
<path d="M19.6729 25.5041V1" stroke="#5AD599" stroke-width="2" stroke-linecap="round" stroke-linejoin="round"/>
</svg>
