<svg width="29" height="29" viewBox="0 0 29 29" fill="none" xmlns="http://www.w3.org/2000/svg">
<circle cx="13.9321" cy="14.3125" r="7.98837" fill="white"/>
<path d="M14.3125 0C6.40868 0 0 6.40868 0 14.3125C0 22.2163 6.40868 28.625 14.3125 28.625C22.2163 28.625 28.625 22.2163 28.625 14.3125C28.625 6.40868 22.2163 0 14.3125 0ZM18.9161 14.5329L11.9388 19.6094C11.9005 19.6369 11.8555 19.6533 11.8085 19.6568C11.7615 19.6604 11.7145 19.6509 11.6725 19.6294C11.6306 19.608 11.5954 19.5754 11.5708 19.5352C11.5462 19.495 11.5331 19.4488 11.5331 19.4017V9.2552C11.5329 9.20801 11.5458 9.16169 11.5704 9.12138C11.5949 9.08108 11.6302 9.04836 11.6722 9.02685C11.7142 9.00535 11.7614 8.9959 11.8084 8.99955C11.8555 9.0032 11.9006 9.01982 11.9388 9.04755L18.9161 14.1208C18.9491 14.1441 18.976 14.175 18.9946 14.2109C19.0131 14.2467 19.0228 14.2865 19.0228 14.3269C19.0228 14.3673 19.0131 14.407 18.9946 14.4429C18.976 14.4787 18.9491 14.5096 18.9161 14.5329V14.5329Z" fill="#FFB341"/>
</svg>
