<svg width="26" height="22" viewBox="0 0 26 22" fill="none" xmlns="http://www.w3.org/2000/svg">
<path d="M26 2.6843C25.0337 3.12862 24.0091 3.42158 22.9597 3.55361C24.0726 2.87218 24.9034 1.78859 25.2924 0.510964C24.2461 1.14949 23.1028 1.5996 21.9113 1.84214C21.1988 1.00364 20.2542 0.413192 19.2062 0.151318C18.1582 -0.110556 17.0578 -0.0311297 16.0549 0.378729C15.052 0.788588 14.1955 1.50897 13.6019 2.44172C13.0083 3.37447 12.7066 4.4742 12.7379 5.59111C12.6979 6.01572 12.6979 6.44335 12.7379 6.86795C10.6298 6.74877 8.56907 6.175 6.68713 5.1833C4.80519 4.1916 3.14352 2.80381 1.80848 1.10863C1.35428 1.93739 1.11072 2.87222 1.10076 3.8253C1.09655 4.7294 1.31019 5.62031 1.72209 6.41727C2.134 7.21423 2.73121 7.89202 3.4597 8.38927C2.61487 8.36766 1.78765 8.13465 1.04845 7.71011V7.71011C1.02601 8.9889 1.43941 10.2349 2.21608 11.2288C2.99276 12.2226 4.0829 12.9006 5.29441 13.1434C4.84248 13.2751 4.37464 13.3391 3.90522 13.3336C3.57444 13.3752 3.24002 13.3752 2.90924 13.3336C3.23686 14.4338 3.89314 15.3976 4.78347 16.086C5.67379 16.7745 6.75218 17.152 7.86292 17.1641C5.98581 18.6906 3.6701 19.5225 1.28425 19.5276C0.85658 19.5554 0.427671 19.5554 0 19.5276C2.43408 21.1404 5.26228 21.9982 8.15119 21.9998C10.1366 22.0106 12.1045 21.6132 13.9409 20.8306C15.7772 20.0481 17.4455 18.8959 18.8494 17.4407C20.2534 15.9855 21.3651 14.2561 22.1201 12.3528C22.875 10.4494 23.2584 8.40972 23.248 6.35178C23.248 6.10728 23.248 5.86279 23.248 5.64546C24.3312 4.83974 25.2637 3.83632 26 2.6843V2.6843Z" fill="#FF9F00"/>
</svg>
