<svg width="37" height="38" viewBox="0 0 37 38" fill="none" xmlns="http://www.w3.org/2000/svg">
<path d="M24.7256 30.546L18.2777 36.5037L11.8371 30.546" stroke="#5AD599" stroke-width="2" stroke-linecap="round" stroke-linejoin="round"/>
<path d="M18.2777 36.5037V16.6325" stroke="#5AD599" stroke-width="2" stroke-linecap="round" stroke-linejoin="round"/>
<path d="M22.314 23.1411H27.6472C28.9202 23.1415 30.1745 22.8322 31.3037 22.2395C32.4328 21.6467 33.4034 20.788 34.1332 19.7363C34.8629 18.6845 35.3301 17.4708 35.4952 16.198C35.6604 14.9253 35.5185 13.6312 35.0816 12.4256C34.6448 11.22 33.9259 10.1384 32.9859 9.27277C32.046 8.40712 30.9127 7.78293 29.6824 7.45318C28.4522 7.12342 27.1611 7.09784 25.9189 7.37862C24.6767 7.6594 23.5201 8.23825 22.5472 9.06601C21.9926 7.08306 20.9002 5.29549 19.393 3.90442C17.8857 2.51334 16.0233 1.57396 14.0154 1.19196C12.0075 0.80996 9.93364 1.00049 8.02727 1.74213C6.12089 2.48377 4.4576 3.7471 3.22452 5.38996C1.99144 7.03281 1.23752 8.99002 1.04755 11.0414C0.857592 13.0927 1.23914 15.1568 2.14927 17.0015C3.05939 18.8461 4.46198 20.398 6.19923 21.4827C7.93648 22.5674 9.93947 23.1417 11.9828 23.1411H14.0592" stroke="#5AD599" stroke-width="2" stroke-linecap="round" stroke-linejoin="round"/>
</svg>
