<svg width="49" height="30" viewBox="0 0 49 30" fill="none" xmlns="http://www.w3.org/2000/svg">
<path d="M24.3094 12.7591C27.5696 12.7591 30.2125 10.1268 30.2125 6.87956C30.2125 3.63237 27.5696 1 24.3094 1C21.0492 1 18.4062 3.63237 18.4062 6.87956C18.4062 10.1268 21.0492 12.7591 24.3094 12.7591Z" stroke="#5AD599" stroke-width="2" stroke-linecap="round" stroke-linejoin="round"/>
<path d="M13.3743 28.4167V27.0005C13.3621 25.5737 13.7241 24.1683 14.4246 22.9236C15.1251 21.6789 16.1399 20.6379 17.3683 19.9037C19.4781 18.6793 21.8761 18.0341 24.3179 18.0341C26.7596 18.0341 29.1577 18.6793 31.2675 19.9037C32.4942 20.6378 33.5077 21.6777 34.2081 22.9207C34.9085 24.1638 35.2715 25.5672 35.2615 26.9926V28.4167" stroke="#5AD599" stroke-width="2" stroke-linecap="round" stroke-linejoin="round"/>
<path d="M33.3445 3.95968C34.2784 3.37037 35.3594 3.05368 36.4649 3.0456C37.5703 3.03752 38.6559 3.33837 39.5983 3.91398C40.5408 4.48958 41.3022 5.31687 41.7963 6.30189C42.2903 7.28691 42.4971 8.39018 42.3932 9.48639C42.2893 10.5826 41.8788 11.6278 41.2084 12.5033C40.538 13.3789 39.6345 14.0496 38.6006 14.4393C37.5666 14.8291 36.4437 14.9222 35.3593 14.7082C34.2749 14.4941 33.2724 13.9815 32.4658 13.2285" stroke="#5AD599" stroke-width="2" stroke-linecap="round" stroke-linejoin="round"/>
<path d="M34.5186 18.1852C35.1877 18.0865 35.8631 18.036 36.5395 18.034C38.9791 18.0317 41.3752 18.677 43.4811 19.9037C44.7089 20.6366 45.7233 21.6762 46.4238 22.9196C47.1244 24.1629 47.4867 25.5669 47.4751 26.9926V28.3929" stroke="#5AD599" stroke-width="2" stroke-linecap="round" stroke-linejoin="round"/>
<path d="M15.155 4.01537C14.2261 3.41947 13.1481 3.09479 12.0433 3.07819C10.9386 3.06158 9.8512 3.35371 8.90468 3.92142C7.95816 4.48913 7.19034 5.30971 6.68833 6.29004C6.18632 7.27038 5.97022 8.37124 6.06455 9.4677C6.15889 10.5642 6.5599 11.6123 7.22205 12.4933C7.88419 13.3743 8.78095 14.0528 9.81064 14.4518C10.8403 14.8509 11.9618 14.9545 13.0476 14.751C14.1334 14.5474 15.1402 14.0448 15.9538 13.3001" stroke="#5AD599" stroke-width="2" stroke-linecap="round" stroke-linejoin="round"/>
<path d="M13.9569 18.1852C13.2904 18.0865 12.6176 18.036 11.9439 18.034C9.50162 18.0306 7.10265 18.676 4.99428 19.9037C3.76644 20.6366 2.75205 21.6762 2.05153 22.9195C1.351 24.1629 0.988629 25.5669 1.00027 26.9926V28.4088" stroke="#5AD599" stroke-width="2" stroke-linecap="round" stroke-linejoin="round"/>
</svg>
