<svg width="13" height="10" viewBox="0 0 13 10" fill="none" xmlns="http://www.w3.org/2000/svg">
<path d="M11.7529 1.625H6.87793V0.475006C6.87793 0.262506 6.60292 0 6.40292 0H1.12793C0.91543 0 0.75293 0.262506 0.75293 0.475006V3.675C0.75293 3.8875 0.92793 4.125 1.12793 4.125H1.89043L2.89043 5.21249C2.96543 5.29999 3.06543 5.325 3.17793 5.325C3.22793 5.325 3.24044 5.31251 3.29044 5.28751C3.44044 5.23751 3.51543 5.0875 3.51543 4.925V4.125H4.26543V6.45C4.26543 6.725 4.55293 7 4.82793 7H8.26543V8.52499C8.26543 8.72499 8.36543 8.9125 8.56543 8.9875C8.62793 9.0125 8.67793 9.02499 8.74043 9.02499C8.87793 9.02499 9.00294 8.99999 9.10294 8.89999L10.9654 7H11.7654C12.0404 7 12.2654 6.725 12.2654 6.45V2.2375C12.2529 1.9625 12.0279 1.625 11.7529 1.625ZM3.17793 3.375C2.96543 3.375 2.75293 3.4625 2.75293 3.675V3.925L2.32793 3.46249C2.25293 3.38749 2.17793 3.375 2.06543 3.375H1.50293V0.75H6.00293V1.625H4.81543C4.54043 1.625 4.25293 1.9625 4.25293 2.2375V3.375H3.17793ZM11.2529 6H10.7404C10.6029 6 10.4904 6.025 10.3904 6.125L9.25293 7.27499V6.4375C9.25293 6.1625 8.99042 5.9875 8.71542 5.9875H5.25293V2.6125H11.2529V6ZM5.97794 3.75C5.97794 3.5375 6.15294 3.375 6.35294 3.375H8.74043C8.95293 3.375 9.11543 3.5375 9.11543 3.75C9.11543 3.9625 8.94043 4.125 8.74043 4.125H6.35294C6.14044 4.125 5.97794 3.9625 5.97794 3.75ZM9.61543 4.0125C9.54043 3.9375 9.50293 3.85 9.50293 3.75C9.50293 3.65 9.54043 3.55 9.61543 3.4875C9.75293 3.35 10.0154 3.35 10.1529 3.4875C10.2279 3.5625 10.2654 3.65 10.2654 3.75C10.2654 3.85 10.2279 3.95 10.1529 4.0125C10.0779 4.0875 9.99043 4.125 9.89043 4.125C9.77793 4.1125 9.67793 4.075 9.61543 4.0125Z" fill="white"/>
</svg>
