<svg width="37" height="39" viewBox="0 0 37 39" fill="none" xmlns="http://www.w3.org/2000/svg">
<path d="M25.1634 31.2647L18.7155 37.2224L12.2749 31.2647" stroke="#5AD599" stroke-width="2" stroke-linecap="round" stroke-linejoin="round"/>
<path d="M18.7158 37.2224V17.3513" stroke="#5AD599" stroke-width="2" stroke-linecap="round" stroke-linejoin="round"/>
<path d="M22.752 23.8599H28.0852C29.3582 23.8603 30.6125 23.551 31.7416 22.9582C32.8708 22.3655 33.8414 21.5068 34.5711 20.455C35.3009 19.4033 35.7681 18.1895 35.9332 16.9168C36.0983 15.6441 35.9564 14.35 35.5196 13.1443C35.0827 11.9387 34.3638 10.8572 33.4239 9.99152C32.484 9.12587 31.3507 8.50168 30.1204 8.17193C28.8901 7.84217 27.5991 7.81659 26.3569 8.09737C25.1147 8.37815 23.9581 8.957 22.9851 9.78476C22.4306 7.80181 21.3382 6.01424 19.8309 4.62317C18.3237 3.23209 16.4613 2.29271 14.4534 1.91071C12.4454 1.52871 10.3716 1.71924 8.46526 2.46088C6.55888 3.20252 4.89558 4.46585 3.66251 6.10871C2.42943 7.75156 1.67551 9.70877 1.48554 11.7601C1.29558 13.8115 1.67713 15.8756 2.58725 17.7202C3.49738 19.5648 4.89996 21.1168 6.63722 22.2015C8.37447 23.2861 10.3775 23.8605 12.4208 23.8599H14.4972" stroke="#5AD599" stroke-width="2" stroke-linecap="round" stroke-linejoin="round"/>
</svg>
